<svg width="35" height="35" viewBox="0 0 35 35" fill="none" xmlns="http://www.w3.org/2000/svg">
<g clip-path="url(#clip0_319_702)">
<path d="M21.9482 7.29159C23.3726 7.56949 24.6816 8.26613 25.7078 9.29232C26.734 10.3185 27.4307 11.6276 27.7086 13.052M21.9482 1.45825C24.9075 1.78701 27.6672 3.11226 29.7739 5.21639C31.8807 7.32052 33.2094 10.0785 33.5419 13.0374M32.0836 24.6749V29.0499C32.0852 29.4561 32.002 29.8581 31.8393 30.2302C31.6766 30.6024 31.438 30.9364 31.1387 31.211C30.8394 31.4855 30.4861 31.6946 30.1013 31.8247C29.7166 31.9548 29.3089 32.0031 28.9044 31.9666C24.4169 31.479 20.1063 29.9455 16.319 27.4895C12.7954 25.2505 9.80803 22.2631 7.569 18.7395C5.10438 14.935 3.5706 10.6035 3.09191 6.09575C3.05547 5.69247 3.1034 5.28603 3.23264 4.90229C3.36189 4.51855 3.56962 4.16592 3.84262 3.86687C4.11561 3.56781 4.44788 3.32887 4.81828 3.16526C5.18867 3.00166 5.58908 2.91697 5.994 2.91659H10.369C11.0767 2.90962 11.7629 3.16024 12.2995 3.62174C12.8361 4.08323 13.1866 4.72411 13.2857 5.42492C13.4703 6.82502 13.8128 8.19973 14.3065 9.52284C14.5027 10.0448 14.5452 10.6121 14.4289 11.1575C14.3126 11.7028 14.0423 12.2034 13.6502 12.5999L11.7982 14.452C13.8742 18.103 16.8972 21.126 20.5482 23.202L22.4002 21.3499C22.7968 20.9578 23.2973 20.6876 23.8427 20.5713C24.3881 20.455 24.9554 20.4975 25.4773 20.6937C26.8004 21.1874 28.1752 21.5298 29.5753 21.7145C30.2837 21.8144 30.9306 22.1713 31.3931 22.7171C31.8556 23.2629 32.1013 23.9597 32.0836 24.6749Z" stroke="#464646" stroke-width="3" stroke-linecap="round" stroke-linejoin="round"/>
</g>
<defs>
<clipPath id="clip0_319_702">
<rect width="35" height="35" fill="white"/>
</clipPath>
</defs>
</svg>
